<svg width="82" height="82" viewBox="0 0 82 82" fill="none" xmlns="http://www.w3.org/2000/svg" xmlns:xlink="http://www.w3.org/1999/xlink">
<mask id="mask_0_11_91" style="mask-type:alpha" maskUnits="userSpaceOnUse" x="0" y="0" width="41" height="41">
<rect  x="0" y="0" width="82" height="82" fill="#D9D9D9"/>
</mask>
<g filter="url(#filter11_62)">
<path d="M78,43.317C78,62.802 61.435,78 41,78C20.565,78 4,62.802 4,43.317C4,23.832 20.565,4 41,4C61.435,4 78,23.832 78,43.317Z" fill="#F3A205"/>
</g>
<g mask="url(#mask_0_11_91)">
<path d="M41,54.667L45.783,49.883L40.317,44.417L54.667,44.417L54.667,37.583L40.317,37.583L45.783,32.117L41,27.333L27.333,41L41,54.667ZM41,75.167C36.274,75.167 31.832,74.27 27.675,72.476C23.518,70.682 19.902,68.248 16.827,65.173C13.752,62.098 11.318,58.482 9.524,54.325C7.73,50.168 6.833,45.726 6.833,41C6.833,36.273 7.73,31.832 9.524,27.675C11.318,23.518 13.752,19.902 16.827,16.827C19.902,13.752 23.518,11.318 27.675,9.524C31.832,7.73 36.274,6.833 41,6.833C45.726,6.833 50.168,7.73 54.325,9.524C58.482,11.318 62.098,13.752 65.173,16.827C68.248,19.902 70.682,23.518 72.476,27.675C74.27,31.832 75.167,36.273 75.167,41C75.167,45.726 74.27,50.168 72.476,54.325C70.682,58.482 68.248,62.098 65.173,65.173C62.098,68.248 58.482,70.682 54.325,72.476C50.168,74.27 45.726,75.167 41,75.167ZM41,68.333C48.631,68.333 55.094,65.685 60.39,60.389C65.685,55.094 68.333,48.63 68.333,41C68.333,33.369 65.685,26.906 60.39,21.61C55.094,16.315 48.631,13.667 41,13.667C33.37,13.667 26.906,16.315 21.61,21.61C16.315,26.906 13.667,33.369 13.667,41C13.667,48.63 16.315,55.094 21.61,60.389C26.906,65.685 33.37,68.333 41,68.333Z" fill="#1C1B1F"/>
</g>
<defs>
<filter id="filter11_62" x="-5" y="-5" width="55" height="55" filterUnits="userSpaceOnUse" color-interpolation-filters="sRGB">
<feFlood flood-opacity="0" result="BackgroundImageFix"/>
<feColorMatrix in="SourceAlpha" type="matrix" values="0 0 0 0 0 0 0 0 0 0 0 0 0 0 0 0 0 0 127 0" result="hardAlpha"/>
<feMorphology radius="0" operator="dilate" in="SourceAlpha" result="0dropshadow"/>
<feOffset dx="0" dy="4"/>
<feGaussianBlur stdDeviation="4.5"/>
<feComposite in2="hardAlpha" operator="out"/>
<feColorMatrix type="matrix" values="0 0 0 0 0.694118 0 0 0 0 0.678431 0 0 0 0 0.678431 0 0 0 0.25 0"/>
<feBlend mode="normal" in2="BackgroundImageFix" result="0dropshadow"/>
<feBlend mode="normal" in="SourceGraphic" in2="0dropshadow" result="shape"/>
</filter>
</defs>
</svg>
